<svg aria-hidden="true" style="position: absolute; width: 0; height: 0; overflow: hidden;" version="1.1" xmlns="http://www.w3.org/2000/svg" xmlns:xlink="http://www.w3.org/1999/xlink">
<defs>
<symbol id="iconarrow-down-sign-to-navigate" viewBox="0 0 32 32">
<path d="M16 25.12c-0.573 0-1.147-0.219-1.584-0.656l-13.759-13.759c-0.875-0.875-0.875-2.294 0-3.169s2.294-0.875 3.169 0l12.174 12.175 12.174-12.175c0.875-0.875 2.294-0.875 3.169 0s0.876 2.294 0 3.169l-13.759 13.759c-0.437 0.437-1.011 0.656-1.584 0.656z"></path>
</symbol>
<symbol id="iconrefer" viewBox="0 0 32 32">
<path d="M25.236 9.245c0-5.098-4.147-9.245-9.245-9.245s-9.245 4.147-9.245 9.245c0 3.157 1.592 5.95 4.014 7.618-2.262 0.781-4.335 2.070-6.077 3.812-3.020 3.020-4.684 7.036-4.684 11.307h2.499c0-7.44 6.053-13.492 13.493-13.492 5.097 0 9.245-4.147 9.245-9.245zM15.991 15.991c-3.72 0-6.746-3.026-6.746-6.746s3.026-6.746 6.746-6.746c3.72 0 6.746 3.026 6.746 6.746s-3.026 6.746-6.746 6.746zM32 22.987l-5.881 5.881-1.767-1.767 2.927-2.927h-2.167c-2.994 0-5.431 2.436-5.434 5.429l-0.002 2.38-2.499-0.002 0.002-2.38c0.004-4.37 3.562-7.926 7.933-7.926h2.042l-2.802-2.802 1.767-1.767z"></path>
</symbol>
<symbol id="iconfree-icon-shopping-cart-1332655" viewBox="0 0 32 32">
<path d="M15.651 28.068c0-1.685-1.366-3.051-3.051-3.051s-3.051 1.366-3.051 3.051c0 1.685 1.366 3.051 3.051 3.051 1.684-0.002 3.049-1.367 3.051-3.051zM10.631 28.068c0-1.088 0.881-1.969 1.969-1.969s1.969 0.881 1.969 1.969c0 1.088-0.881 1.969-1.969 1.969-1.087-0.001-1.968-0.882-1.969-1.969z"></path>
<path d="M23.897 31.119c1.685 0 3.051-1.366 3.051-3.051s-1.366-3.051-3.051-3.051-3.051 1.366-3.051 3.051c0.002 1.684 1.367 3.049 3.051 3.051zM23.897 26.099c1.087 0 1.969 0.881 1.969 1.969s-0.881 1.969-1.969 1.969-1.969-0.881-1.969-1.969c0.001-1.087 0.882-1.967 1.969-1.969z"></path>
<path d="M0.541 1.932h3.3c1.086-0.004 2.012 0.787 2.178 1.86l2.613 16.503c0.247 1.6 1.627 2.779 3.246 2.773h16.149c0.299 0 0.541-0.242 0.541-0.541s-0.242-0.541-0.541-0.541h-16.149c-1.086 0.004-2.012-0.787-2.178-1.86l-0.444-2.806h16.539c1.4-0.001 2.647-0.888 3.106-2.21l3.069-8.856c0.058-0.165 0.031-0.348-0.070-0.491s-0.266-0.227-0.441-0.227h-24.068l-0.303-1.912c-0.247-1.6-1.627-2.779-3.246-2.773h-3.3c-0.299 0-0.541 0.242-0.541 0.541s0.242 0.541 0.541 0.541zM30.698 6.618l-2.819 8.138c-0.308 0.887-1.144 1.482-2.083 1.483h-16.711l-1.523-9.621z"></path>
</symbol>
<symbol id="iconfree-icon-magnifying-glass-search-16492" viewBox="0 0 32 32">
<path d="M31.552 27.495l-7.662-7.915c-0.549-0.568-1.236-0.795-1.534-0.505-0.299 0.288-0.986 0.061-1.535-0.506l-0.11-0.114c3.429-4.51 3.096-10.967-1.021-15.085-4.494-4.494-11.781-4.494-16.274 0s-4.494 11.78 0 16.274c4.188 4.188 10.798 4.469 15.317 0.852l0.048 0.050c0.548 0.568 0.753 1.262 0.453 1.55-0.298 0.289-0.095 0.983 0.455 1.55l7.657 7.918c0.549 0.566 1.455 0.583 2.023 0.033l2.149-2.079c0.566-0.549 0.582-1.453 0.033-2.023zM17.162 17.116c-3.093 3.093-8.125 3.093-11.218 0.001s-3.092-8.126 0-11.218c3.092-3.093 8.125-3.092 11.217 0 3.093 3.092 3.093 8.124 0.001 11.217z"></path>
</symbol>
</defs>
</svg>
